# xmcd
#
# Track frame offsets:
#  150
#  17280
#  34482
#  48777
#  67584
#  84892
#  102002
#  118777
#  137330
#  154352
#  174366
#  196018
#
# Disc length: 2730 seconds
#
# Revision: 0
# Processed by: cddbd v1.5.1PL2 Copyright (c) Steve Scherf et al.
# Submitted via: Collectorz.com_Music_Collector 6.10
#
DISCID=820aa80c
DTITLE=Andrea Menard - Simple Steps
DYEAR=2005
DGENRE=
TTITLE0=Métis Hands
TTITLE1=Enough Room
TTITLE2=My Laughing Fool
TTITLE3=100 Years
TTITLE4=Ancestors
TTITLE5=It's Simple
TTITLE6=Right HEre, Right Now
TTITLE7=My Neighbourhood
TTITLE8=Dance Old Friends
TTITLE9=Children of the Rainbow/Red River Jig
TTITLE10=Boy For One MOre Day/Sur le Champ de Bataille
TTITLE11=Peace
EXTD=
EXTT0=
EXTT1=
EXTT2=
EXTT3=
EXTT4=
EXTT5=
EXTT6=
EXTT7=
EXTT8=
EXTT9=
EXTT10=
EXTT11=
PLAYORDER=
